<svg width="14" height="14" viewBox="0 0 14 14" fill="none" xmlns="http://www.w3.org/2000/svg">
<path d="M7 0C6.04545 0 5.29972 0.368056 4.76278 1.10417C4.22585 1.84028 3.95739 2.78125 3.95739 3.92708C3.95076 5.35069 4.38826 6.47917 5.26989 7.3125C5.38258 7.42361 5.42235 7.56597 5.3892 7.73958L5.16051 8.23958C5.08759 8.40625 4.97988 8.53646 4.83736 8.63021C4.69484 8.72396 4.39489 8.85764 3.9375 9.03125C3.91761 9.03819 3.49834 9.18056 2.67969 9.45833C1.86103 9.73611 1.42519 9.88889 1.37216 9.91667C0.815341 10.1597 0.450758 10.4132 0.278409 10.6771C0.092803 11.1146 0 12.2222 0 14H14C14 12.2222 13.9072 11.1146 13.7216 10.6771C13.5492 10.4132 13.1847 10.1597 12.6278 9.91667C12.5748 9.88889 12.139 9.73611 11.3203 9.45833C10.5017 9.18056 10.0824 9.03819 10.0625 9.03125C9.60511 8.85764 9.30516 8.72396 9.16264 8.63021C9.02012 8.53646 8.91241 8.40625 8.83949 8.23958L8.6108 7.73958C8.57765 7.56597 8.61742 7.42361 8.73011 7.3125C9.61174 6.47917 10.0492 5.35069 10.0426 3.92708C10.0426 2.78125 9.77415 1.84028 9.23722 1.10417C8.70028 0.368056 7.95455 0 7 0Z" fill="#6F787D"/>
</svg>